<svg width="60" height="67" viewBox="0 0 60 67" fill="none" xmlns="http://www.w3.org/2000/svg">
<path d="M0 0H60V52C60 60.2843 53.2843 67 45 67H15C6.71573 67 0 60.2843 0 52V0Z" fill="#FB075F"/>
<path fill-rule="evenodd" clip-rule="evenodd" d="M28.5858 25.5858C29.3668 24.8047 30.6332 24.8047 31.4142 25.5858L44.4142 38.5858C45.1953 39.3668 45.1953 40.6332 44.4142 41.4142C43.6332 42.1953 42.3668 42.1953 41.5858 41.4142L30 29.8284L18.4142 41.4142C17.6332 42.1953 16.3668 42.1953 15.5858 41.4142C14.8047 40.6332 14.8047 39.3668 15.5858 38.5858L28.5858 25.5858Z" fill="white"/>
</svg>
