<svg width="98" height="100" viewBox="0 0 98 100" fill="none" xmlns="http://www.w3.org/2000/svg">
<path fill-rule="evenodd" clip-rule="evenodd" d="M49.3975 99.9999C46.8446 99.9999 44.1516 99.3777 42.0487 98.1631C38.204 95.9434 37.7863 92.5858 41.1162 90.663L71.8745 72.9047C73.3833 72.0339 75.4021 71.6069 77.5166 71.6069C80.0694 71.6069 82.7624 72.2292 84.8654 73.4429C88.7101 75.663 89.1278 79.021 85.7978 80.9438L55.0395 98.7017C53.5312 99.573 51.5124 99.9999 49.3975 99.9999Z" fill="#8595AC"/>
<path fill-rule="evenodd" clip-rule="evenodd" d="M72.6377 65.9323L72.6464 62.01L77.2861 38.6326L72.7034 35.8018L63.5228 40.8698L63.4571 71.0004C63.4525 73.0279 64.2121 74.3993 65.3799 74.8455V74.8473L69.4617 77.4135L69.9746 75.4728L70.6758 71.9388C71.8578 70.1966 72.6336 67.9705 72.6377 65.9323Z" fill="#5589BB"/>
<path fill-rule="evenodd" clip-rule="evenodd" d="M72.6163 77.3236C70.0809 78.7234 68.0317 77.1595 68.0391 73.8314L68.1044 43.7008L77.2854 38.6328L77.2197 68.7638C77.2128 72.0915 75.1517 75.9242 72.6163 77.3236Z" fill="#5589BB"/>
<path fill-rule="evenodd" clip-rule="evenodd" d="M97.3985 22.4084C97.3985 30.055 92.03 33.1552 85.4072 29.3312C78.7836 25.5077 73.415 16.2085 73.415 8.56096C73.415 0.913885 78.7836 -2.18585 85.4072 1.63769C92.03 5.46169 97.3985 14.7609 97.3985 22.4084Z" fill="#FB075F"/>
<path fill-rule="evenodd" clip-rule="evenodd" d="M94.0039 30.1015L59.1058 50.113L40.3457 21.9324L76.7028 0.935547L94.0039 30.1015Z" fill="#FB075F"/>
<path fill-rule="evenodd" clip-rule="evenodd" d="M80.2797 32.6208C80.2797 24.7555 74.7576 15.1911 67.946 11.2582C64.85 9.47051 62.0232 9.15892 59.8573 10.0831L59.8541 10.078L59.8095 10.1001L59.7539 10.1268C59.6588 10.17 59.5655 10.2159 59.4731 10.2637C46.5944 16.5937 32.3398 19.6194 17.9965 19.0611L13.9326 18.9025L47.0168 75.5975L48.8086 72.1342C55.3435 59.5037 64.8946 48.6879 76.606 40.6374C78.8734 39.3639 80.2797 36.5887 80.2797 32.6208Z" fill="#D4EAF2"/>
<path fill-rule="evenodd" clip-rule="evenodd" d="M50.875 62.7853C50.875 47.697 40.2817 29.3491 27.2146 21.805C20.6976 18.043 14.7968 17.6781 10.5179 20.1289L10.5183 20.128L10.4949 20.1413L10.4632 20.1602L6.58083 22.4341L7.93699 22.151C5.17779 25.0265 3.55371 29.5577 3.55371 35.4644C3.55371 50.5532 14.147 68.9006 27.2146 76.4452C32.3428 79.4057 37.0892 80.2619 40.9646 79.2986L40.3497 80.203L43.9237 78.1143L43.9798 78.0812L44.108 78.0063H44.1039C48.2914 75.4958 50.875 70.2352 50.875 62.7853Z" fill="#D4EAF2"/>
<path fill-rule="evenodd" clip-rule="evenodd" d="M48.1062 64.401C48.1062 49.3123 37.5129 30.9648 24.4453 23.4202C18.0165 19.7084 12.1875 19.3053 7.9232 21.6477L7.32899 21.9961C7.12633 22.1247 6.92826 22.2608 6.73294 22.4028L7.93699 22.1509C5.17779 25.0264 3.55371 29.5577 3.55371 35.4644C3.55371 50.5531 14.147 68.9006 27.2146 76.4452C32.3428 79.4056 37.0892 80.2618 40.9646 79.2986L40.404 80.1235C45.137 77.8601 48.1062 72.3882 48.1062 64.401Z" fill="#FFFFFE"/>
<path fill-rule="evenodd" clip-rule="evenodd" d="M47.3213 64.8626C47.3213 79.9509 36.728 86.0662 23.6604 78.5221C10.5933 70.9775 0 52.6296 0 37.5413C0 22.453 10.5933 16.3377 23.6604 23.8818C36.728 31.4264 47.3213 49.7743 47.3213 64.8626Z" fill="#5589BB"/>
<path fill-rule="evenodd" clip-rule="evenodd" d="M44.4199 63.1869C44.4199 76.425 35.1262 81.7904 23.6611 75.1709C12.1965 68.5523 2.90234 52.4548 2.90234 39.2168C2.90234 25.9787 12.1965 20.6129 23.6611 27.2324C35.1262 33.8514 44.4199 49.9489 44.4199 63.1869Z" fill="#374850"/>
<path fill-rule="evenodd" clip-rule="evenodd" d="M24.6303 74.7559C13.1652 68.1369 3.87156 52.0394 3.87156 38.8018C3.87156 31.8501 6.43544 27.0711 10.5297 25.0564C5.87432 26.7646 2.90234 31.7315 2.90234 39.2168C2.90234 52.4549 12.1965 68.5523 23.6611 75.1709C29.1055 78.3143 34.0591 78.7532 37.7618 76.9315C34.1841 78.2444 29.612 77.6323 24.6303 74.7559Z" fill="#FFFFFE"/>
<mask id="mask0_352_3624" style="mask-type:alpha" maskUnits="userSpaceOnUse" x="2" y="24" width="43" height="55">
<path d="M44.4199 63.1869C44.4199 76.425 35.1262 81.7904 23.6611 75.1709C12.1965 68.5523 2.90234 52.4548 2.90234 39.2168C2.90234 25.9787 12.1965 20.6129 23.6611 27.2324C35.1262 33.8514 44.4199 49.9489 44.4199 63.1869Z" fill="white"/>
</mask>
<g mask="url(#mask0_352_3624)">
<path fill-rule="evenodd" clip-rule="evenodd" d="M20.5537 46.2393L50.6742 22.9502L61.6112 41.9254L26.2587 56.4323L20.5537 46.2393Z" fill="#D4EAF2"/>
<path fill-rule="evenodd" clip-rule="evenodd" d="M27.8065 53.595C27.8065 56.2388 25.9504 57.3101 23.6609 55.9884C21.3713 54.6667 19.5156 51.4521 19.5156 48.8082C19.5156 46.1648 21.3713 45.0936 23.6609 46.4153C25.9504 47.737 27.8065 50.9516 27.8065 53.595Z" fill="#5589BB"/>
</g>
<path fill-rule="evenodd" clip-rule="evenodd" d="M65.8252 66.1906L65.6625 66.0973C65.06 65.7517 64.5696 64.8216 64.5673 64.0196L64.5508 58.209C64.548 57.407 65.0352 57.0371 65.6372 57.3827L65.8003 57.476C66.4024 57.8216 66.8927 58.7517 66.895 59.5536L66.9116 65.3643C66.9139 66.1667 66.4276 66.5362 65.8252 66.1906Z" fill="#FFFFFE"/>
</svg>
