<svg width="208" height="108" viewBox="0 0 208 108" fill="none" xmlns="http://www.w3.org/2000/svg">
<g filter="url(#filter0_d_352_3549)">
<path d="M4.5 20.5H203.5V94C203.5 97.0376 201.038 99.5 198 99.5H9.99999C6.96243 99.5 4.5 97.0376 4.5 94V20.5Z" fill="white" stroke="#E2E6F3"/>
<path d="M4 6C4 2.68629 6.68629 0 10 0H198C201.314 0 204 2.68629 204 6V20H4V6Z" fill="#374850"/>
<circle cx="14" cy="10" r="3" fill="#FB075F"/>
<circle cx="24" cy="10" r="3" fill="#FADE32"/>
<circle cx="34" cy="10" r="3" fill="#3ED144"/>
<path d="M72.143 66V53.4H76.976C77.66 53.4 78.278 53.571 78.83 53.913C79.382 54.255 79.82 54.714 80.144 55.29C80.468 55.86 80.63 56.493 80.63 57.189C80.63 57.759 80.525 58.284 80.315 58.764C80.111 59.238 79.823 59.649 79.451 59.997C79.085 60.345 78.662 60.609 78.182 60.789L81.197 66H78.668L75.752 60.987H74.339V66H72.143ZM74.339 58.791H76.724C77.036 58.791 77.321 58.713 77.579 58.557C77.837 58.401 78.044 58.191 78.2 57.927C78.356 57.663 78.434 57.369 78.434 57.045C78.434 56.715 78.356 56.418 78.2 56.154C78.044 55.89 77.837 55.68 77.579 55.524C77.321 55.368 77.036 55.29 76.724 55.29H74.339V58.791ZM86.4814 66.234C85.6534 66.234 84.8974 66.021 84.2134 65.595C83.5354 65.169 82.9924 64.596 82.5844 63.876C82.1824 63.156 81.9814 62.361 81.9814 61.491C81.9814 60.837 82.0984 60.225 82.3324 59.655C82.5664 59.079 82.8874 58.575 83.2954 58.143C83.7094 57.705 84.1894 57.363 84.7354 57.117C85.2814 56.871 85.8634 56.748 86.4814 56.748C87.1834 56.748 87.8254 56.898 88.4074 57.198C88.9954 57.492 89.4934 57.897 89.9014 58.413C90.3094 58.929 90.6064 59.517 90.7924 60.177C90.9784 60.837 91.0204 61.527 90.9184 62.247H84.3394C84.4234 62.583 84.5614 62.886 84.7534 63.156C84.9454 63.42 85.1884 63.633 85.4824 63.795C85.7764 63.951 86.1094 64.032 86.4814 64.038C86.8654 64.044 87.2134 63.954 87.5254 63.768C87.8434 63.576 88.1074 63.318 88.3174 62.994L90.5584 63.516C90.1924 64.314 89.6464 64.968 88.9204 65.478C88.1944 65.982 87.3814 66.234 86.4814 66.234ZM84.2674 60.6H88.6954C88.6294 60.24 88.4884 59.916 88.2724 59.628C88.0624 59.334 87.8014 59.1 87.4894 58.926C87.1774 58.752 86.8414 58.665 86.4814 58.665C86.1214 58.665 85.7884 58.752 85.4824 58.926C85.1764 59.094 84.9154 59.325 84.6994 59.619C84.4894 59.907 84.3454 60.234 84.2674 60.6ZM95.1407 55.11V57H97.5977V59.196H95.1407V66H92.9447V59.196H91.9637V57H92.9447V55.11C92.9447 54.594 93.0707 54.123 93.3227 53.697C93.5807 53.265 93.9257 52.923 94.3577 52.671C94.7897 52.413 95.2667 52.284 95.7887 52.284C96.1667 52.284 96.5417 52.362 96.9137 52.518C97.2857 52.674 97.6157 52.914 97.9037 53.238L96.3197 54.786C96.2657 54.684 96.1877 54.609 96.0857 54.561C95.9897 54.507 95.8907 54.48 95.7887 54.48C95.6147 54.48 95.4617 54.543 95.3297 54.669C95.2037 54.789 95.1407 54.936 95.1407 55.11ZM102.864 66.234C102.036 66.234 101.28 66.021 100.596 65.595C99.9182 65.169 99.3752 64.596 98.9672 63.876C98.5652 63.156 98.3642 62.361 98.3642 61.491C98.3642 60.837 98.4812 60.225 98.7152 59.655C98.9492 59.079 99.2702 58.575 99.6782 58.143C100.092 57.705 100.572 57.363 101.118 57.117C101.664 56.871 102.246 56.748 102.864 56.748C103.566 56.748 104.208 56.898 104.79 57.198C105.378 57.492 105.876 57.897 106.284 58.413C106.692 58.929 106.989 59.517 107.175 60.177C107.361 60.837 107.403 61.527 107.301 62.247H100.722C100.806 62.583 100.944 62.886 101.136 63.156C101.328 63.42 101.571 63.633 101.865 63.795C102.159 63.951 102.492 64.032 102.864 64.038C103.248 64.044 103.596 63.954 103.908 63.768C104.226 63.576 104.49 63.318 104.7 62.994L106.941 63.516C106.575 64.314 106.029 64.968 105.303 65.478C104.577 65.982 103.764 66.234 102.864 66.234ZM100.65 60.6H105.078C105.012 60.24 104.871 59.916 104.655 59.628C104.445 59.334 104.184 59.1 103.872 58.926C103.56 58.752 103.224 58.665 102.864 58.665C102.504 58.665 102.171 58.752 101.865 58.926C101.559 59.094 101.298 59.325 101.082 59.619C100.872 59.907 100.728 60.234 100.65 60.6ZM114.238 59.232C114.076 59.124 113.899 59.037 113.707 58.971C113.521 58.905 113.314 58.872 113.086 58.872C112.648 58.872 112.27 58.986 111.952 59.214C111.64 59.442 111.4 59.748 111.232 60.132C111.064 60.51 110.98 60.93 110.98 61.392V66H108.766V57H110.962V58.062C111.262 57.666 111.619 57.351 112.033 57.117C112.453 56.883 112.927 56.766 113.455 56.766C113.659 56.766 113.854 56.772 114.04 56.784C114.232 56.796 114.415 56.829 114.589 56.883L114.238 59.232ZM121.409 59.232C121.247 59.124 121.07 59.037 120.878 58.971C120.692 58.905 120.485 58.872 120.257 58.872C119.819 58.872 119.441 58.986 119.123 59.214C118.811 59.442 118.571 59.748 118.403 60.132C118.235 60.51 118.151 60.93 118.151 61.392V66H115.937V57H118.133V58.062C118.433 57.666 118.79 57.351 119.204 57.117C119.624 56.883 120.098 56.766 120.626 56.766C120.83 56.766 121.025 56.772 121.211 56.784C121.403 56.796 121.586 56.829 121.76 56.883L121.409 59.232ZM129.423 57H131.619V66H129.414L129.324 64.884C129.072 65.286 128.742 65.613 128.334 65.865C127.932 66.111 127.458 66.234 126.912 66.234C126.246 66.234 125.622 66.108 125.04 65.856C124.458 65.604 123.945 65.256 123.501 64.812C123.057 64.368 122.712 63.855 122.466 63.273C122.22 62.691 122.097 62.067 122.097 61.401C122.097 60.759 122.214 60.156 122.448 59.592C122.682 59.028 123.012 58.533 123.438 58.107C123.864 57.681 124.356 57.348 124.914 57.108C125.472 56.868 126.072 56.748 126.714 56.748C127.314 56.748 127.848 56.88 128.316 57.144C128.79 57.408 129.192 57.744 129.522 58.152L129.423 57ZM126.975 64.119C127.455 64.119 127.872 63.996 128.226 63.75C128.58 63.504 128.847 63.177 129.027 62.769C129.213 62.355 129.288 61.899 129.252 61.401C129.21 60.933 129.072 60.51 128.838 60.132C128.604 59.748 128.304 59.442 127.938 59.214C127.572 58.986 127.161 58.872 126.705 58.872C126.231 58.872 125.805 58.995 125.427 59.241C125.055 59.487 124.767 59.817 124.563 60.231C124.359 60.639 124.278 61.095 124.32 61.599C124.368 62.061 124.518 62.484 124.77 62.868C125.022 63.246 125.34 63.549 125.724 63.777C126.114 64.005 126.531 64.119 126.975 64.119ZM133.842 66V52.5H136.038V66H133.842ZM142.586 66V53.4H144.782V63.804H150.029V66H142.586ZM152.008 57H154.204V66H152.008V57ZM153.115 55.659C152.797 55.659 152.527 55.554 152.305 55.344C152.083 55.128 151.972 54.858 151.972 54.534C151.972 54.216 152.083 53.949 152.305 53.733C152.527 53.517 152.797 53.409 153.115 53.409C153.433 53.409 153.7 53.517 153.916 53.733C154.138 53.949 154.249 54.216 154.249 54.534C154.249 54.858 154.138 55.128 153.916 55.344C153.7 55.554 153.433 55.659 153.115 55.659ZM165.727 61.347V66H163.531V61.383C163.531 60.921 163.435 60.501 163.243 60.123C163.051 59.739 162.784 59.433 162.442 59.205C162.106 58.977 161.716 58.863 161.272 58.863C160.84 58.863 160.465 58.977 160.147 59.205C159.829 59.433 159.583 59.739 159.409 60.123C159.241 60.501 159.157 60.921 159.157 61.383V66H156.961V57H159.157V58.062C159.457 57.66 159.814 57.342 160.228 57.108C160.648 56.868 161.122 56.748 161.65 56.748C162.478 56.748 163.195 56.958 163.801 57.378C164.413 57.792 164.884 58.347 165.214 59.043C165.55 59.739 165.721 60.507 165.727 61.347ZM175.805 66H173.276L171.224 62.463L169.964 63.966V66H167.768V52.5H169.964V60.555L172.943 57H175.814L172.727 60.681L175.805 66Z" fill="#4A5A72"/>
<path fill-rule="evenodd" clip-rule="evenodd" d="M38.8305 50.3173L41.3637 46L46 48.0328L50.6363 46L53.1695 50.3173L58.1356 51.3486L57.6038 56.3009L61 60.0001L57.6038 63.6993L58.1356 68.6516L53.1695 69.683L50.6363 74.0002L46 71.9674L41.3637 74.0002L38.8305 69.683L33.8644 68.6516L34.3962 63.6993L31 60.0001L34.3962 56.3009L33.8644 51.3487L38.8305 50.3173Z" fill="#3ED144"/>
<path d="M46 48.0328L50.6362 46L53.1694 50.3173L58.1356 51.3486L57.6038 56.3009L61 60.0001L57.6038 63.6993L58.1356 68.6516L53.1694 69.683L50.6363 74.0002L46 71.9674V48.0328Z" fill="#2EC434"/>
<path fill-rule="evenodd" clip-rule="evenodd" d="M50.9745 55.814L52.2875 56.9859L45.9996 64.0307V64.0311L44.7585 65.4215L39.5264 60.1894L40.7708 58.9449L44.6858 62.8599L45.9987 61.3891L45.9991 61.3882L50.9745 55.814Z" fill="#FFFBF5"/>
</g>
<defs>
<filter id="filter0_d_352_3549" x="0" y="0" width="208" height="108" filterUnits="userSpaceOnUse" color-interpolation-filters="sRGB">
<feFlood flood-opacity="0" result="BackgroundImageFix"/>
<feColorMatrix in="SourceAlpha" type="matrix" values="0 0 0 0 0 0 0 0 0 0 0 0 0 0 0 0 0 0 127 0" result="hardAlpha"/>
<feOffset dy="4"/>
<feGaussianBlur stdDeviation="2"/>
<feComposite in2="hardAlpha" operator="out"/>
<feColorMatrix type="matrix" values="0 0 0 0 0 0 0 0 0 0 0 0 0 0 0 0 0 0 0.15 0"/>
<feBlend mode="normal" in2="BackgroundImageFix" result="effect1_dropShadow_352_3549"/>
<feBlend mode="normal" in="SourceGraphic" in2="effect1_dropShadow_352_3549" result="shape"/>
</filter>
</defs>
</svg>
